<svg xmlns="http://www.w3.org/2000/svg" viewBox="0 0 29 29" width="96" height="96">
  <rect width="29" height="29" fill="#fff"/>
  <g fill="#000">
    <rect x="0" y="0" width="7" height="7"/><rect x="1" y="1" width="5" height="5" fill="#fff"/><rect x="2" y="2" width="3" height="3"/>
    <rect x="22" y="0" width="7" height="7"/><rect x="23" y="1" width="5" height="5" fill="#fff"/><rect x="24" y="2" width="3" height="3"/>
    <rect x="0" y="22" width="7" height="7"/><rect x="1" y="23" width="5" height="5" fill="#fff"/><rect x="2" y="24" width="3" height="3"/>
    <rect x="9" y="0" width="1" height="1"/><rect x="11" y="0" width="1" height="1"/><rect x="13" y="0" width="1" height="1"/>
    <rect x="10" y="2" width="1" height="1"/><rect x="12" y="3" width="1" height="1"/>
    <rect x="9" y="5" width="2" height="1"/><rect x="12" y="5" width="1" height="1"/>
    <rect x="9" y="8" width="1" height="1"/><rect x="11" y="8" width="2" height="1"/>
    <rect x="0" y="9" width="1" height="1"/><rect x="2" y="9" width="1" height="1"/>
    <rect x="4" y="9" width="1" height="1"/><rect x="6" y="9" width="1" height="1"/>
    <rect x="9" y="10" width="1" height="1"/><rect x="11" y="10" width="1" height="1"/>
    <rect x="13" y="10" width="2" height="1"/><rect x="17" y="10" width="1" height="1"/>
    <rect x="20" y="10" width="1" height="1"/><rect x="22" y="10" width="1" height="1"/>
    <rect x="25" y="10" width="1" height="1"/><rect x="27" y="10" width="1" height="1"/>
    <rect x="9" y="12" width="2" height="1"/><rect x="12" y="12" width="1" height="1"/>
    <rect x="15" y="12" width="1" height="1"/><rect x="18" y="12" width="2" height="1"/>
    <rect x="22" y="12" width="1" height="1"/><rect x="24" y="12" width="1" height="1"/>
    <rect x="27" y="12" width="1" height="1"/>
    <rect x="9" y="14" width="1" height="1"/><rect x="11" y="14" width="2" height="1"/>
    <rect x="14" y="14" width="1" height="1"/><rect x="16" y="14" width="2" height="1"/>
    <rect x="19" y="14" width="1" height="1"/><rect x="21" y="14" width="1" height="1"/>
    <rect x="24" y="14" width="1" height="1"/><rect x="26" y="14" width="1" height="1"/>
    <rect x="9" y="16" width="2" height="1"/><rect x="12" y="16" width="1" height="1"/>
    <rect x="15" y="16" width="1" height="1"/><rect x="17" y="16" width="1" height="1"/>
    <rect x="20" y="16" width="2" height="1"/><rect x="23" y="16" width="1" height="1"/>
    <rect x="26" y="16" width="1" height="1"/>
    <rect x="9" y="18" width="1" height="1"/><rect x="11" y="18" width="1" height="1"/>
    <rect x="13" y="18" width="2" height="1"/><rect x="16" y="18" width="2" height="1"/>
    <rect x="19" y="18" width="1" height="1"/><rect x="22" y="18" width="1" height="1"/>
    <rect x="25" y="18" width="1" height="1"/><rect x="27" y="18" width="1" height="1"/>
    <rect x="0" y="20" width="7" height="1"/><rect x="9" y="20" width="1" height="1"/>
    <rect x="11" y="20" width="2" height="1"/><rect x="15" y="20" width="1" height="1"/>
    <rect x="17" y="20" width="1" height="1"/><rect x="20" y="20" width="1" height="1"/>
    <rect x="23" y="20" width="2" height="1"/><rect x="26" y="20" width="1" height="1"/>
    <rect x="9" y="23" width="1" height="1"/><rect x="12" y="23" width="1" height="1"/>
    <rect x="15" y="23" width="1" height="1"/><rect x="18" y="23" width="1" height="1"/>
    <rect x="21" y="23" width="2" height="1"/><rect x="25" y="23" width="1" height="1"/>
    <rect x="9" y="25" width="2" height="1"/><rect x="13" y="25" width="1" height="1"/>
    <rect x="16" y="25" width="2" height="1"/><rect x="20" y="25" width="1" height="1"/>
    <rect x="23" y="25" width="1" height="1"/><rect x="26" y="25" width="1" height="1"/>
    <rect x="9" y="27" width="1" height="1"/><rect x="12" y="27" width="1" height="1"/>
    <rect x="14" y="27" width="1" height="1"/><rect x="17" y="27" width="1" height="1"/>
    <rect x="20" y="27" width="1" height="1"/><rect x="22" y="27" width="1" height="1"/>
    <rect x="24" y="27" width="1" height="1"/><rect x="27" y="27" width="1" height="1"/>
  </g>
</svg>